# xmcd
#
# Track frame offsets:
#	150
#	10846
#	18387
#	28325
#	40278
#	54348
#	71415
#	83654
#	96390
#	107301
#	119881
#	132084
#	156633
#	165711
#
# Disc length: 2392 seconds
#
# Revision: 1
# Processed by: cddbd v1.5.1PL0 Copyright (c) Steve Scherf et al.
# Submitted via: audiograbber 1.83.01
#
DISCID=b809560e
DTITLE=Cody Hubach - Old 45s and Other Hangin' Songs
DYEAR=1900
DGENRE=Country
TTITLE0=If I Had my Whole Life to Live Over
TTITLE1=Hooley
TTITLE2=Angleton Town
TTITLE3=Stardust Train
TTITLE4=Black Dog
TTITLE5=Death Row Blues
TTITLE6=Cacaine Blues
TTITLE7=Down and Out
TTITLE8=Dreamer's Bar
TTITLE9=Everchangin' Minstrel
TTITLE10=Hoochie Coochie Man
TTITLE11=Song to Rebecca
TTITLE12=Willie Jean
TTITLE13=Ooh Love
EXTD=
EXTT0=
EXTT1=
EXTT2=
EXTT3=
EXTT4=
EXTT5=
EXTT6=
EXTT7=
EXTT8=
EXTT9=
EXTT10=
EXTT11=
EXTT12=
EXTT13=
PLAYORDER=
